<svg width="1320" height="55" viewBox="0 0 1320 55" fill="none" xmlns="http://www.w3.org/2000/svg">
<path d="M13.524 30V22.664C13.0573 22.888 12.46 23.0653 11.732 23.196C11.004 23.308 10.276 23.364 9.548 23.364C6.93467 23.364 4.91867 22.6733 3.5 21.292C2.1 19.9107 1.4 17.8013 1.4 14.964V10.26H5.74V14.796C5.74 16.532 6.104 17.7827 6.832 18.548C7.56 19.3133 8.63333 19.696 10.052 19.696C10.6307 19.696 11.228 19.64 11.844 19.528C12.46 19.416 13.02 19.2293 13.524 18.968V10.26H17.864V30H13.524ZM26.5436 30V13.844H20.0196V10.26H37.4076V13.844H30.8836V30H26.5436ZM47.7026 30.308C45.7613 30.308 44.0533 29.888 42.5786 29.048C41.1226 28.1893 39.9839 27.004 39.1626 25.492C38.3599 23.9613 37.9586 22.1693 37.9586 20.116C37.9586 18.0627 38.3599 16.28 39.1626 14.768C39.9839 13.2373 41.1226 12.052 42.5786 11.212C44.0346 10.372 45.7426 9.952 47.7026 9.952C49.6626 9.952 51.3706 10.372 52.8266 11.212C54.3013 12.052 55.4399 13.2373 56.2426 14.768C57.0639 16.28 57.4746 18.0533 57.4746 20.088C57.4746 22.1413 57.0639 23.9333 56.2426 25.464C55.4399 26.9947 54.3013 28.1893 52.8266 29.048C51.3706 29.888 49.6626 30.308 47.7026 30.308ZM47.7026 26.612C49.3453 26.612 50.6239 26.0427 51.5386 24.904C52.4719 23.7467 52.9386 22.1507 52.9386 20.116C52.9386 18.0627 52.4813 16.476 51.5666 15.356C50.6519 14.2173 49.3639 13.648 47.7026 13.648C46.0786 13.648 44.7999 14.2173 43.8666 15.356C42.9519 16.476 42.4946 18.0627 42.4946 20.116C42.4946 22.1507 42.9519 23.7467 43.8666 24.904C44.7999 26.0427 46.0786 26.612 47.7026 26.612ZM77.7807 30.308C75.8394 30.308 74.1314 29.888 72.6567 29.048C71.2007 28.1893 70.0621 27.004 69.2407 25.492C68.4381 23.9613 68.0367 22.1693 68.0367 20.116C68.0367 18.0627 68.4381 16.28 69.2407 14.768C70.0621 13.2373 71.2007 12.052 72.6567 11.212C74.1127 10.372 75.8207 9.952 77.7807 9.952C79.7407 9.952 81.4487 10.372 82.9047 11.212C84.3794 12.052 85.5181 13.2373 86.3207 14.768C87.1421 16.28 87.5527 18.0533 87.5527 20.088C87.5527 22.1413 87.1421 23.9333 86.3207 25.464C85.5181 26.9947 84.3794 28.1893 82.9047 29.048C81.4487 29.888 79.7407 30.308 77.7807 30.308ZM77.7807 26.612C79.4234 26.612 80.7021 26.0427 81.6167 24.904C82.5501 23.7467 83.0167 22.1507 83.0167 20.116C83.0167 18.0627 82.5594 16.476 81.6447 15.356C80.7301 14.2173 79.4421 13.648 77.7807 13.648C76.1567 13.648 74.8781 14.2173 73.9447 15.356C73.0301 16.476 72.5727 18.0627 72.5727 20.116C72.5727 22.1507 73.0301 23.7467 73.9447 24.904C74.8781 26.0427 76.1567 26.612 77.7807 26.612ZM98.7028 30V10.26H103.043V18.184H112.227V10.26H116.567V30H112.227V21.796H103.043V30H98.7028ZM118.282 30L127.355 10.26H130.855L139.927 30H135.559L133.711 25.716H124.499L122.678 30H118.282ZM129.063 14.88L125.954 22.328H132.283L129.119 14.88H129.063ZM150.58 30.308C148.452 30.308 146.632 29.888 145.12 29.048C143.608 28.208 142.441 27.032 141.62 25.52C140.817 23.9893 140.416 22.188 140.416 20.116C140.416 18.0627 140.817 16.28 141.62 14.768C142.441 13.2373 143.608 12.052 145.12 11.212C146.632 10.372 148.452 9.952 150.58 9.952C151.886 9.952 153.137 10.1573 154.332 10.568C155.526 10.9787 156.506 11.5387 157.272 12.248L155.928 15.692C155.088 15.0387 154.238 14.5627 153.38 14.264C152.54 13.9467 151.653 13.788 150.72 13.788C148.834 13.788 147.406 14.3387 146.436 15.44C145.484 16.5227 145.008 18.0813 145.008 20.116C145.008 22.1507 145.484 23.7187 146.436 24.82C147.406 25.9213 148.834 26.472 150.72 26.472C151.653 26.472 152.54 26.3227 153.38 26.024C154.238 25.7067 155.088 25.2213 155.928 24.568L157.272 28.012C156.506 28.7027 155.526 29.2627 154.332 29.692C153.137 30.1027 151.886 30.308 150.58 30.308ZM167.91 30V10.26H181.378V13.844H172.25V30H167.91ZM192.734 30.308C190.793 30.308 189.085 29.888 187.61 29.048C186.154 28.1893 185.015 27.004 184.194 25.492C183.391 23.9613 182.99 22.1693 182.99 20.116C182.99 18.0627 183.391 16.28 184.194 14.768C185.015 13.2373 186.154 12.052 187.61 11.212C189.066 10.372 190.774 9.952 192.734 9.952C194.694 9.952 196.402 10.372 197.858 11.212C199.333 12.052 200.471 13.2373 201.274 14.768C202.095 16.28 202.506 18.0533 202.506 20.088C202.506 22.1413 202.095 23.9333 201.274 25.464C200.471 26.9947 199.333 28.1893 197.858 29.048C196.402 29.888 194.694 30.308 192.734 30.308ZM192.734 26.612C194.377 26.612 195.655 26.0427 196.57 24.904C197.503 23.7467 197.97 22.1507 197.97 20.116C197.97 18.0627 197.513 16.476 196.598 15.356C195.683 14.2173 194.395 13.648 192.734 13.648C191.11 13.648 189.831 14.2173 188.898 15.356C187.983 16.476 187.526 18.0627 187.526 20.116C187.526 22.1507 187.983 23.7467 188.898 24.904C189.831 26.0427 191.11 26.612 192.734 26.612ZM205.863 30V10.26H214.907C217.016 10.26 218.64 10.7173 219.779 11.632C220.936 12.5467 221.515 13.7973 221.515 15.384C221.515 16.4293 221.254 17.3347 220.731 18.1C220.208 18.8467 219.48 19.4067 218.547 19.78C219.667 20.0973 220.526 20.6573 221.123 21.46C221.739 22.2627 222.047 23.252 222.047 24.428C222.047 26.1827 221.431 27.5547 220.199 28.544C218.986 29.5147 217.324 30 215.215 30H205.863ZM210.007 18.38H214.151C216.279 18.38 217.343 17.5587 217.343 15.916C217.343 14.292 216.279 13.48 214.151 13.48H210.007V18.38ZM210.007 26.78H214.627C215.747 26.78 216.568 26.5653 217.091 26.136C217.614 25.7067 217.875 25.0533 217.875 24.176C217.875 23.3173 217.614 22.6733 217.091 22.244C216.568 21.8147 215.747 21.6 214.627 21.6H210.007V26.78ZM234.488 30.308C232.546 30.308 230.838 29.888 229.364 29.048C227.908 28.1893 226.769 27.004 225.948 25.492C225.145 23.9613 224.744 22.1693 224.744 20.116C224.744 18.0627 225.145 16.28 225.948 14.768C226.769 13.2373 227.908 12.052 229.364 11.212C230.82 10.372 232.528 9.952 234.488 9.952C236.448 9.952 238.156 10.372 239.612 11.212C241.086 12.052 242.225 13.2373 243.028 14.768C243.849 16.28 244.26 18.0533 244.26 20.088C244.26 22.1413 243.849 23.9333 243.028 25.464C242.225 26.9947 241.086 28.1893 239.612 29.048C238.156 29.888 236.448 30.308 234.488 30.308ZM234.488 26.612C236.13 26.612 237.409 26.0427 238.324 24.904C239.257 23.7467 239.724 22.1507 239.724 20.116C239.724 18.0627 239.266 16.476 238.352 15.356C237.437 14.2173 236.149 13.648 234.488 13.648C232.864 13.648 231.585 14.2173 230.652 15.356C229.737 16.476 229.28 18.0627 229.28 20.116C229.28 22.1507 229.737 23.7467 230.652 24.904C231.585 26.0427 232.864 26.612 234.488 26.612ZM247.617 30V10.26H256.633C258.836 10.26 260.534 10.82 261.729 11.94C262.924 13.0413 263.521 14.5813 263.521 16.56C263.521 18.5387 262.924 20.088 261.729 21.208C260.534 22.328 258.836 22.888 256.633 22.888H251.957V30H247.617ZM251.957 19.528H255.905C258.201 19.528 259.349 18.5387 259.349 16.56C259.349 14.6187 258.201 13.648 255.905 13.648H251.957V19.528ZM264.923 30L268.115 24.148C268.712 23.0467 269.477 22.3467 270.411 22.048C268.955 21.6933 267.835 21.0213 267.051 20.032C266.285 19.0427 265.903 17.8013 265.903 16.308C265.903 14.404 266.5 12.92 267.695 11.856C268.889 10.792 270.588 10.26 272.791 10.26H281.835V30H277.467V22.356H275.619C275.059 22.356 274.573 22.4587 274.163 22.664C273.771 22.8507 273.435 23.196 273.155 23.7L269.711 30H264.923ZM273.547 19.22H277.467V13.648H273.547C271.232 13.648 270.075 14.572 270.075 16.42C270.075 18.2867 271.232 19.22 273.547 19.22ZM290.493 30V13.844H283.969V10.26H301.357V13.844H294.833V30H290.493ZM311.273 30V10.26H315.613V18.408H317.993L323.005 10.26H327.765L321.969 19.22C323.332 19.9107 324.442 21.1333 325.301 22.888L328.745 30H324.041L321.465 24.4C321.054 23.5227 320.56 22.9067 319.981 22.552C319.421 22.1787 318.702 21.992 317.825 21.992H315.613V30H311.273ZM331.274 30.504L329.09 27.34C330.098 26.7613 330.929 26.0427 331.582 25.184C332.254 24.3253 332.749 23.1867 333.066 21.768C333.383 20.3493 333.542 18.5293 333.542 16.308V10.26H348.018V30H343.65V13.844H337.546V17.428C337.546 21.012 336.986 23.84 335.866 25.912C334.765 27.984 333.234 29.5147 331.274 30.504ZM351.961 30V10.26H355.993V22.944L365.849 10.26H369.069V30H365.037V17.26L355.153 30H351.961ZM373.043 30V10.26H386.567V13.648H377.187V18.268H385.951V21.684H377.187V26.612H386.567V30H373.043ZM389.996 30V10.26H394.336V18.184H403.52V10.26H407.86V30H403.52V21.796H394.336V30H389.996ZM416.547 30V13.844H410.023V10.26H427.411V13.844H420.887V30H416.547ZM429.535 30V10.26H433.875V18.212H438.047C440.156 18.212 441.818 18.716 443.031 19.724C444.263 20.732 444.879 22.188 444.879 24.092C444.879 25.996 444.263 27.4613 443.031 28.488C441.818 29.496 440.156 30 438.047 30H429.535ZM447.203 30V10.26H451.571V30H447.203ZM433.875 26.64H437.459C438.579 26.64 439.4 26.4347 439.923 26.024C440.446 25.6133 440.707 24.9693 440.707 24.092C440.707 23.252 440.446 22.6267 439.923 22.216C439.4 21.7867 438.579 21.572 437.459 21.572H433.875V26.64Z" fill="#222222"/>
<rect y="52" width="50" height="3" fill="#4F8FF0"/>
<path d="M1263.31 35.8334L1254.97 27.5L1263.31 19.1667L1264.78 20.6459L1257.93 27.5L1264.78 34.3542L1263.31 35.8334Z" fill="#4F8FF0"/>
<line x1="1277.07" y1="41.4424" x2="1291.1" y2="12.681" stroke="#4F8FF0" stroke-width="2"/>
<path d="M1306.69 35.8334L1305.21 34.3542L1312.06 27.5L1305.21 20.6459L1306.69 19.1667L1315.02 27.5L1306.69 35.8334Z" fill="#4F8FF0"/>
</svg>
